# xmcd
#
# Track frame offsets:
#	150
#	17192
#	31095
#	44485
#	62107
#	73284
#	92151
#	104978
#	119478
#	132343
#	148103
#	163118
#	174846
#	198436
#
# Disc length: 2924 seconds
#
# Revision: 3
# Processed by: cddbd v1.5.2PL0 Copyright (c) Steve Scherf et al.
# Submitted via: EasyCDDAExtractor 15.3.0.1
#
DISCID=d60b6a0e
DTITLE=Selena - Remembered
DYEAR=2005
DGENRE=Latin
TTITLE0=Techno Cumbia
TTITLE1=Como La Flor
TTITLE2=Baila Esta Cumbia
TTITLE3=Dame Un Beso
TTITLE4=Ven Conmigo
TTITLE5=La Carcacha
TTITLE6=No Debes Jugar
TTITLE7=La Llamada
TTITLE8=Amor Prohibido
TTITLE9=Bidi Bidi Bom Bom
TTITLE10=No Me Queda Mas
TTITLE11=Fotos Y Recuerdos
TTITLE12=Dreaming Of You
TTITLE13=I Could Fall In Love
EXTD=
EXTT0=
EXTT1=
EXTT2=
EXTT3=
EXTT4=
EXTT5=
EXTT6=
EXTT7=
EXTT8=
EXTT9=
EXTT10=
EXTT11=
EXTT12=
EXTT13=
PLAYORDER=
